<?xml version="1.0" standalone="no"?>
<!DOCTYPE svg PUBLIC "-//W3C//DTD SVG 1.1//EN" "http://www.w3.org/Graphics/SVG/1.1/DTD/svg11.dtd">
<svg version="1.1" width="1200" height="358" onload="init(evt)" viewBox="0 0 1200 358" xmlns="http://www.w3.org/2000/svg" xmlns:xlink="http://www.w3.org/1999/xlink">
<style type="text/css">
	text { font-family:Verdana; font-size:12px; fill:rgb(0,0,0); }
	#search { opacity:0.1; cursor:pointer; }
	#search:hover, #search.show { opacity:1; }
	#subtitle { text-anchor:middle; font-color:rgb(160,160,160); }
	#title { text-anchor:middle; font-size:17px}
	#unzoom { cursor:pointer; }
	#frames > *:hover { stroke:black; stroke-width:0.5; cursor:pointer; }
	.hide { display:none; }
	.parent { opacity:0.5; }
</style>
<script type="text/ecmascript">
<![CDATA[
	"use strict";
	var details, searchbtn, unzoombtn, matchedtxt, svg, searching;
	function init(evt) {
		details = document.getElementById("details").firstChild;
		searchbtn = document.getElementById("search");
		unzoombtn = document.getElementById("unzoom");
		matchedtxt = document.getElementById("matched");
		svg = document.getElementsByTagName("svg")[0];
		searching = 0;
	}

	window.addEventListener("click", function(e) {
		var target = find_group(e.target);
		if (target) {
			if (target.nodeName == "a") {
				if (e.ctrlKey === false) return;
				e.preventDefault();
			}
			if (target.classList.contains("parent")) unzoom();
			zoom(target);
		}
		else if (e.target.id == "unzoom") unzoom();
		else if (e.target.id == "search") search_prompt();
	}, false)

	// mouse-over for info
	// show
	window.addEventListener("mouseover", function(e) {
		var target = find_group(e.target);
		if (target) details.nodeValue = "Function: " + g_to_text(target);
	}, false)

	// clear
	window.addEventListener("mouseout", function(e) {
		var target = find_group(e.target);
		if (target) details.nodeValue = ' ';
	}, false)

	// ctrl-F for search
	window.addEventListener("keydown",function (e) {
		if (e.keyCode === 114 || (e.ctrlKey && e.keyCode === 70)) {
			e.preventDefault();
			search_prompt();
		}
	}, false)

	// functions
	function find_child(node, selector) {
		var children = node.querySelectorAll(selector);
		if (children.length) return children[0];
		return;
	}
	function find_group(node) {
		var parent = node.parentElement;
		if (!parent) return;
		if (parent.id == "frames") return node;
		return find_group(parent);
	}
	function orig_save(e, attr, val) {
		if (e.attributes["_orig_" + attr] != undefined) return;
		if (e.attributes[attr] == undefined) return;
		if (val == undefined) val = e.attributes[attr].value;
		e.setAttribute("_orig_" + attr, val);
	}
	function orig_load(e, attr) {
		if (e.attributes["_orig_"+attr] == undefined) return;
		e.attributes[attr].value = e.attributes["_orig_" + attr].value;
		e.removeAttribute("_orig_"+attr);
	}
	function g_to_text(e) {
		var text = find_child(e, "title").firstChild.nodeValue;
		return (text)
	}
	function g_to_func(e) {
		var func = g_to_text(e);
		// if there's any manipulation we want to do to the function
		// name before it's searched, do it here before returning.
		return (func);
	}
	function update_text(e) {
		var r = find_child(e, "rect");
		var t = find_child(e, "text");
		var w = parseFloat(r.attributes.width.value) -3;
		var txt = find_child(e, "title").textContent.replace(/\([^(]*\)$/,"");
		t.attributes.x.value = parseFloat(r.attributes.x.value) + 3;

		// Smaller than this size won't fit anything
		if (w < 2 * 12 * 0.59) {
			t.textContent = "";
			return;
		}

		t.textContent = txt;
		// Fit in full text width
		if (/^ *$/.test(txt) || t.getSubStringLength(0, txt.length) < w)
			return;

		for (var x = txt.length - 2; x > 0; x--) {
			if (t.getSubStringLength(0, x + 2) <= w) {
				t.textContent = txt.substring(0, x) + "..";
				return;
			}
		}
		t.textContent = "";
	}

	// zoom
	function zoom_reset(e) {
		if (e.attributes != undefined) {
			orig_load(e, "x");
			orig_load(e, "width");
		}
		if (e.childNodes == undefined) return;
		for (var i = 0, c = e.childNodes; i < c.length; i++) {
			zoom_reset(c[i]);
		}
	}
	function zoom_child(e, x, ratio) {
		if (e.attributes != undefined) {
			if (e.attributes.x != undefined) {
				orig_save(e, "x");
				e.attributes.x.value = (parseFloat(e.attributes.x.value) - x - 10) * ratio + 10;
				if (e.tagName == "text")
					e.attributes.x.value = find_child(e.parentNode, "rect[x]").attributes.x.value + 3;
			}
			if (e.attributes.width != undefined) {
				orig_save(e, "width");
				e.attributes.width.value = parseFloat(e.attributes.width.value) * ratio;
			}
		}

		if (e.childNodes == undefined) return;
		for (var i = 0, c = e.childNodes; i < c.length; i++) {
			zoom_child(c[i], x - 10, ratio);
		}
	}
	function zoom_parent(e) {
		if (e.attributes) {
			if (e.attributes.x != undefined) {
				orig_save(e, "x");
				e.attributes.x.value = 10;
			}
			if (e.attributes.width != undefined) {
				orig_save(e, "width");
				e.attributes.width.value = parseInt(svg.width.baseVal.value) - (10 * 2);
			}
		}
		if (e.childNodes == undefined) return;
		for (var i = 0, c = e.childNodes; i < c.length; i++) {
			zoom_parent(c[i]);
		}
	}
	function zoom(node) {
		var attr = find_child(node, "rect").attributes;
		var width = parseFloat(attr.width.value);
		var xmin = parseFloat(attr.x.value);
		var xmax = parseFloat(xmin + width);
		var ymin = parseFloat(attr.y.value);
		var ratio = (svg.width.baseVal.value - 2 * 10) / width;

		// XXX: Workaround for JavaScript float issues (fix me)
		var fudge = 0.0001;

		unzoombtn.classList.remove("hide");

		var el = document.getElementById("frames").children;
		for (var i = 0; i < el.length; i++) {
			var e = el[i];
			var a = find_child(e, "rect").attributes;
			var ex = parseFloat(a.x.value);
			var ew = parseFloat(a.width.value);
			var upstack;
			// Is it an ancestor
			if (0 == 0) {
				upstack = parseFloat(a.y.value) > ymin;
			} else {
				upstack = parseFloat(a.y.value) < ymin;
			}
			if (upstack) {
				// Direct ancestor
				if (ex <= xmin && (ex+ew+fudge) >= xmax) {
					e.classList.add("parent");
					zoom_parent(e);
					update_text(e);
				}
				// not in current path
				else
					e.classList.add("hide");
			}
			// Children maybe
			else {
				// no common path
				if (ex < xmin || ex + fudge >= xmax) {
					e.classList.add("hide");
				}
				else {
					zoom_child(e, xmin, ratio);
					update_text(e);
				}
			}
		}
	}
	function unzoom() {
		unzoombtn.classList.add("hide");
		var el = document.getElementById("frames").children;
		for(var i = 0; i < el.length; i++) {
			el[i].classList.remove("parent");
			el[i].classList.remove("hide");
			zoom_reset(el[i]);
			update_text(el[i]);
		}
	}

	// search
	function reset_search() {
		var el = document.querySelectorAll("#frames rect");
		for (var i = 0; i < el.length; i++) {
			orig_load(el[i], "fill")
		}
	}
	function search_prompt() {
		if (!searching) {
			var term = prompt("Enter a search term (regexp " +
			    "allowed, eg: ^ext4_)", "");
			if (term != null) {
				search(term)
			}
		} else {
			reset_search();
			searching = 0;
			searchbtn.classList.remove("show");
			searchbtn.firstChild.nodeValue = "Search"
			matchedtxt.classList.add("hide");
			matchedtxt.firstChild.nodeValue = ""
		}
	}
	function search(term) {
		var re = new RegExp(term);
		var el = document.getElementById("frames").children;
		var matches = new Object();
		var maxwidth = 0;
		for (var i = 0; i < el.length; i++) {
			var e = el[i];
			var func = g_to_func(e);
			var rect = find_child(e, "rect");
			if (func == null || rect == null)
				continue;

			// Save max width. Only works as we have a root frame
			var w = parseFloat(rect.attributes.width.value);
			if (w > maxwidth)
				maxwidth = w;

			if (func.match(re)) {
				// highlight
				var x = parseFloat(rect.attributes.x.value);
				orig_save(rect, "fill");
				rect.attributes.fill.value = "rgb(230,0,230)";

				// remember matches
				if (matches[x] == undefined) {
					matches[x] = w;
				} else {
					if (w > matches[x]) {
						// overwrite with parent
						matches[x] = w;
					}
				}
				searching = 1;
			}
		}
		if (!searching)
			return;

		searchbtn.classList.add("show");
		searchbtn.firstChild.nodeValue = "Reset Search";

		// calculate percent matched, excluding vertical overlap
		var count = 0;
		var lastx = -1;
		var lastw = 0;
		var keys = Array();
		for (k in matches) {
			if (matches.hasOwnProperty(k))
				keys.push(k);
		}
		// sort the matched frames by their x location
		// ascending, then width descending
		keys.sort(function(a, b){
			return a - b;
		});
		// Step through frames saving only the biggest bottom-up frames
		// thanks to the sort order. This relies on the tree property
		// where children are always smaller than their parents.
		var fudge = 0.0001;	// JavaScript floating point
		for (var k in keys) {
			var x = parseFloat(keys[k]);
			var w = matches[keys[k]];
			if (x >= lastx + lastw - fudge) {
				count += w;
				lastx = x;
				lastw = w;
			}
		}
		// display matched percent
		matchedtxt.classList.remove("hide");
		var pct = 100 * count / maxwidth;
		if (pct != 100) pct = pct.toFixed(1)
		matchedtxt.firstChild.nodeValue = "Matched: " + pct + "%";
	}
]]>
</script>
<rect x="0" y="0" width="100%" height="100%" fill="rgb(240,240,220)"/>
<text id="title" x="600" y="24">Flame Graph</text>
<text id="details" x="10" y="341"> </text>
<text id="unzoom" x="10" y="24" class="hide">Reset Zoom</text>
<text id="search" x="1090" y="24">Search</text>
<text id="matched" x="1090" y="341"> </text>
<g id="frames">
<g>
<title>all (63 samples, 100.00%)</title><rect x="10.0" y="307.0" width="1180.0" height="15" fill="#e15a5a" rx="2" ry="2"/>
<text x="13.0" y="318.0">all</text>
</g>
<g>
<title>com/home/CpuAsyncProfilerTest.main (53 samples, 84.13%)</title><rect x="10.0" y="291.0" width="992.7" height="15" fill="#53e453" rx="2" ry="2"/>
<text x="13.0" y="302.0">com/home/CpuAsyncProfilerTest.main</text>
</g>
<g>
<title>com/home/CpuAsyncTask.run (53 samples, 84.13%)</title><rect x="10.0" y="275.0" width="992.7" height="15" fill="#66f766" rx="2" ry="2"/>
<text x="13.0" y="286.0">com/home/CpuAsyncTask.run</text>
</g>
<g>
<title>com/home/CpuAsyncProfilerTest.aTest (53 samples, 84.13%)</title><rect x="10.0" y="259.0" width="992.7" height="15" fill="#5dee5d" rx="2" ry="2"/>
<text x="13.0" y="270.0">com/home/CpuAsyncProfilerTest.aTest</text>
</g>
<g>
<title>com/home/CpuAsyncProfilerTest.bTest (25 samples, 39.68%)</title><rect x="10.0" y="243.0" width="468.3" height="15" fill="#5ff05f" rx="2" ry="2"/>
<text x="13.0" y="254.0">com/home/CpuAsyncProfilerTest.bTest</text>
</g>
<g>
<title>com/home/CpuAsyncProfilerTest.cTest (19 samples, 30.16%)</title><rect x="10.0" y="227.0" width="355.9" height="15" fill="#56e756" rx="2" ry="2"/>
<text x="13.0" y="238.0">com/home/CpuAsyncProfilerTest.cTest</text>
</g>
<g>
<title>java/lang/Thread.sleep (19 samples, 30.16%)</title><rect x="10.0" y="211.0" width="355.9" height="15" fill="#51e251" rx="2" ry="2"/>
<text x="13.0" y="222.0">java/lang/Thread.sleep</text>
</g>
<g>
<title>JVM_Sleep (18 samples, 28.57%)</title><rect x="28.7" y="195.0" width="337.2" height="15" fill="#f57575" rx="2" ry="2"/>
<text x="31.7" y="206.0">JVM_Sleep</text>
</g>
<g>
<title>os::sleep(Thread*, long, bool) (18 samples, 28.57%)</title><rect x="28.7" y="179.0" width="337.2" height="15" fill="#dcdc42" rx="2" ry="2"/>
<text x="31.7" y="190.0">os::sleep(Thread*, long, bool)</text>
</g>
<g>
<title>JavaThread::check_and_wait_while_suspended() (1 samples, 1.59%)</title><rect x="47.5" y="163.0" width="18.7" height="15" fill="#e4e445" rx="2" ry="2"/>
<text x="50.5" y="174.0"></text>
</g>
<g>
<title>Monitor::lock_without_safepoint_check() (1 samples, 1.59%)</title><rect x="47.5" y="147.0" width="18.7" height="15" fill="#d3d33f" rx="2" ry="2"/>
<text x="50.5" y="158.0"></text>
</g>
<g>
<title>os::PlatformEvent::park(long) (16 samples, 25.40%)</title><rect x="66.2" y="163.0" width="299.7" height="15" fill="#d7d741" rx="2" ry="2"/>
<text x="69.2" y="174.0">os::PlatformEvent::park(long)</text>
</g>
<g>
<title>__gettimeofday (1 samples, 1.59%)</title><rect x="66.2" y="147.0" width="18.7" height="15" fill="#f97b7b" rx="2" ry="2"/>
<text x="69.2" y="158.0"></text>
</g>
<g>
<title>__psynch_cvwait (15 samples, 23.81%)</title><rect x="84.9" y="147.0" width="281.0" height="15" fill="#e25b5b" rx="2" ry="2"/>
<text x="87.9" y="158.0">__psynch_cvwait</text>
</g>
<g>
<title>java/lang/Thread.sleep (6 samples, 9.52%)</title><rect x="365.9" y="227.0" width="112.4" height="15" fill="#51e251" rx="2" ry="2"/>
<text x="368.9" y="238.0">java/lang/Thre..</text>
</g>
<g>
<title>JVM_Sleep (5 samples, 7.94%)</title><rect x="384.6" y="211.0" width="93.7" height="15" fill="#f06f6f" rx="2" ry="2"/>
<text x="387.6" y="222.0">JVM_Sleep</text>
</g>
<g>
<title>java_lang_Thread::set_thread_status(oopDesc*, java_lang_Thread::ThreadStatus) (1 samples, 1.59%)</title><rect x="384.6" y="195.0" width="18.7" height="15" fill="#dcdc42" rx="2" ry="2"/>
<text x="387.6" y="206.0"></text>
</g>
<g>
<title>os::sleep(Thread*, long, bool) (4 samples, 6.35%)</title><rect x="403.3" y="195.0" width="75.0" height="15" fill="#c8c83c" rx="2" ry="2"/>
<text x="406.3" y="206.0">os::slee..</text>
</g>
<g>
<title>os::PlatformEvent::park(long) (4 samples, 6.35%)</title><rect x="403.3" y="179.0" width="75.0" height="15" fill="#d3d33f" rx="2" ry="2"/>
<text x="406.3" y="190.0">os::Plat..</text>
</g>
<g>
<title>__psynch_cvwait (4 samples, 6.35%)</title><rect x="403.3" y="163.0" width="75.0" height="15" fill="#e35c5c" rx="2" ry="2"/>
<text x="406.3" y="174.0">__psynch..</text>
</g>
<g>
<title>com/home/CpuAsyncProfilerTest.cTest (13 samples, 20.63%)</title><rect x="478.3" y="243.0" width="243.4" height="15" fill="#5ced5c" rx="2" ry="2"/>
<text x="481.3" y="254.0">com/home/CpuAsyncProfilerTest.cT..</text>
</g>
<g>
<title>java/lang/Thread.sleep (13 samples, 20.63%)</title><rect x="478.3" y="227.0" width="243.4" height="15" fill="#64f564" rx="2" ry="2"/>
<text x="481.3" y="238.0">java/lang/Thread.sleep</text>
</g>
<g>
<title>JVM_Sleep (13 samples, 20.63%)</title><rect x="478.3" y="211.0" width="243.4" height="15" fill="#f27171" rx="2" ry="2"/>
<text x="481.3" y="222.0">JVM_Sleep</text>
</g>
<g>
<title>os::sleep(Thread*, long, bool) (13 samples, 20.63%)</title><rect x="478.3" y="195.0" width="243.4" height="15" fill="#e3e345" rx="2" ry="2"/>
<text x="481.3" y="206.0">os::sleep(Thread*, long, bool)</text>
</g>
<g>
<title>JavaThread::check_and_wait_while_suspended() (2 samples, 3.17%)</title><rect x="478.3" y="179.0" width="37.4" height="15" fill="#e1e144" rx="2" ry="2"/>
<text x="481.3" y="190.0">Jav..</text>
</g>
<g>
<title>JavaThread::handle_special_suspend_equivalent_condition() (1 samples, 1.59%)</title><rect x="478.3" y="163.0" width="18.7" height="15" fill="#d7d741" rx="2" ry="2"/>
<text x="481.3" y="174.0"></text>
</g>
<g>
<title>Monitor::lock_without_safepoint_check() (1 samples, 1.59%)</title><rect x="478.3" y="147.0" width="18.7" height="15" fill="#caca3c" rx="2" ry="2"/>
<text x="481.3" y="158.0"></text>
</g>
<g>
<title>Monitor::ILock(Thread*) (1 samples, 1.59%)</title><rect x="478.3" y="131.0" width="18.7" height="15" fill="#dbdb42" rx="2" ry="2"/>
<text x="481.3" y="142.0"></text>
</g>
<g>
<title>Monitor::TryFast() (1 samples, 1.59%)</title><rect x="478.3" y="115.0" width="18.7" height="15" fill="#d4d440" rx="2" ry="2"/>
<text x="481.3" y="126.0"></text>
</g>
<g>
<title>MutexLockerEx::MutexLockerEx(Monitor*, bool) (1 samples, 1.59%)</title><rect x="497.0" y="163.0" width="18.7" height="15" fill="#dddd43" rx="2" ry="2"/>
<text x="500.0" y="174.0"></text>
</g>
<g>
<title>ThreadStateTransition::trans_and_fence(JavaThreadState, JavaThreadState) (1 samples, 1.59%)</title><rect x="515.7" y="179.0" width="18.7" height="15" fill="#e3e345" rx="2" ry="2"/>
<text x="518.7" y="190.0"></text>
</g>
<g>
<title>os::PlatformEvent::park(long) (10 samples, 15.87%)</title><rect x="534.4" y="179.0" width="187.3" height="15" fill="#dede43" rx="2" ry="2"/>
<text x="537.4" y="190.0">os::PlatformEvent::park(..</text>
</g>
<g>
<title>__psynch_cvwait (10 samples, 15.87%)</title><rect x="534.4" y="163.0" width="187.3" height="15" fill="#e86464" rx="2" ry="2"/>
<text x="537.4" y="174.0">__psynch_cvwait</text>
</g>
<g>
<title>java/lang/Thread.sleep (15 samples, 23.81%)</title><rect x="721.7" y="243.0" width="281.0" height="15" fill="#51e251" rx="2" ry="2"/>
<text x="724.7" y="254.0">java/lang/Thread.sleep</text>
</g>
<g>
<title>JVM_Sleep (14 samples, 22.22%)</title><rect x="740.5" y="227.0" width="262.2" height="15" fill="#f77777" rx="2" ry="2"/>
<text x="743.5" y="238.0">JVM_Sleep</text>
</g>
<g>
<title>os::sleep(Thread*, long, bool) (14 samples, 22.22%)</title><rect x="740.5" y="211.0" width="262.2" height="15" fill="#d1d13f" rx="2" ry="2"/>
<text x="743.5" y="222.0">os::sleep(Thread*, long, bool)</text>
</g>
<g>
<title>os::PlatformEvent::park(long) (13 samples, 20.63%)</title><rect x="740.5" y="195.0" width="243.5" height="15" fill="#dada42" rx="2" ry="2"/>
<text x="743.5" y="206.0">os::PlatformEvent::park(long)</text>
</g>
<g>
<title>__psynch_cvwait (12 samples, 19.05%)</title><rect x="740.5" y="179.0" width="224.7" height="15" fill="#f77878" rx="2" ry="2"/>
<text x="743.5" y="190.0">__psynch_cvwait</text>
</g>
<g>
<title>_pthread_cond_wait (1 samples, 1.59%)</title><rect x="965.2" y="179.0" width="18.8" height="15" fill="#fe8181" rx="2" ry="2"/>
<text x="968.2" y="190.0"></text>
</g>
<g>
<title>_pthread_cond_updateval (1 samples, 1.59%)</title><rect x="965.2" y="163.0" width="18.8" height="15" fill="#eb6868" rx="2" ry="2"/>
<text x="968.2" y="174.0"></text>
</g>
<g>
<title>pthread_cond_destroy (1 samples, 1.59%)</title><rect x="984.0" y="195.0" width="18.7" height="15" fill="#e86363" rx="2" ry="2"/>
<text x="987.0" y="206.0"></text>
</g>
<g>
<title>java/lang/ClassLoader.loadClass (1 samples, 1.59%)</title><rect x="1002.7" y="291.0" width="18.7" height="15" fill="#6dfe6d" rx="2" ry="2"/>
<text x="1005.7" y="302.0"></text>
</g>
<g>
<title>sun/misc/Launcher$AppClassLoader.loadClass (1 samples, 1.59%)</title><rect x="1002.7" y="275.0" width="18.7" height="15" fill="#65f665" rx="2" ry="2"/>
<text x="1005.7" y="286.0"></text>
</g>
<g>
<title>java/lang/ClassLoader.loadClass (1 samples, 1.59%)</title><rect x="1002.7" y="259.0" width="18.7" height="15" fill="#66f766" rx="2" ry="2"/>
<text x="1005.7" y="270.0"></text>
</g>
<g>
<title>java/lang/ClassLoader.loadClass (1 samples, 1.59%)</title><rect x="1002.7" y="243.0" width="18.7" height="15" fill="#63f463" rx="2" ry="2"/>
<text x="1005.7" y="254.0"></text>
</g>
<g>
<title>java/net/URLClassLoader.findClass (1 samples, 1.59%)</title><rect x="1002.7" y="227.0" width="18.7" height="15" fill="#52e352" rx="2" ry="2"/>
<text x="1005.7" y="238.0"></text>
</g>
<g>
<title>java/security/AccessController.doPrivileged (1 samples, 1.59%)</title><rect x="1002.7" y="211.0" width="18.7" height="15" fill="#62f362" rx="2" ry="2"/>
<text x="1005.7" y="222.0"></text>
</g>
<g>
<title>java/net/URLClassLoader$1.run (1 samples, 1.59%)</title><rect x="1002.7" y="195.0" width="18.7" height="15" fill="#6afb6a" rx="2" ry="2"/>
<text x="1005.7" y="206.0"></text>
</g>
<g>
<title>java/net/URLClassLoader$1.run (1 samples, 1.59%)</title><rect x="1002.7" y="179.0" width="18.7" height="15" fill="#58e958" rx="2" ry="2"/>
<text x="1005.7" y="190.0"></text>
</g>
<g>
<title>sun/misc/URLClassPath.getResource (1 samples, 1.59%)</title><rect x="1002.7" y="163.0" width="18.7" height="15" fill="#5dee5d" rx="2" ry="2"/>
<text x="1005.7" y="174.0"></text>
</g>
<g>
<title>sun/misc/URLClassPath$JarLoader.getResource (1 samples, 1.59%)</title><rect x="1002.7" y="147.0" width="18.7" height="15" fill="#66f766" rx="2" ry="2"/>
<text x="1005.7" y="158.0"></text>
</g>
<g>
<title>sun/misc/URLClassPath$JarLoader.ensureOpen (1 samples, 1.59%)</title><rect x="1002.7" y="131.0" width="18.7" height="15" fill="#5eef5e" rx="2" ry="2"/>
<text x="1005.7" y="142.0"></text>
</g>
<g>
<title>java/security/AccessController.doPrivileged (1 samples, 1.59%)</title><rect x="1002.7" y="115.0" width="18.7" height="15" fill="#57e857" rx="2" ry="2"/>
<text x="1005.7" y="126.0"></text>
</g>
<g>
<title>sun/misc/URLClassPath$JarLoader$1.run (1 samples, 1.59%)</title><rect x="1002.7" y="99.0" width="18.7" height="15" fill="#58e958" rx="2" ry="2"/>
<text x="1005.7" y="110.0"></text>
</g>
<g>
<title>sun/misc/URLClassPath$JarLoader$1.run (1 samples, 1.59%)</title><rect x="1002.7" y="83.0" width="18.7" height="15" fill="#5aeb5a" rx="2" ry="2"/>
<text x="1005.7" y="94.0"></text>
</g>
<g>
<title>sun/misc/URLClassPath$JarLoader.access$700 (1 samples, 1.59%)</title><rect x="1002.7" y="67.0" width="18.7" height="15" fill="#54e554" rx="2" ry="2"/>
<text x="1005.7" y="78.0"></text>
</g>
<g>
<title>sun/misc/URLClassPath$JarLoader.getJarFile (1 samples, 1.59%)</title><rect x="1002.7" y="51.0" width="18.7" height="15" fill="#5eef5e" rx="2" ry="2"/>
<text x="1005.7" y="62.0"></text>
</g>
<g>
<title>sun/misc/URLClassPath$JarLoader.isOptimizable (1 samples, 1.59%)</title><rect x="1002.7" y="35.0" width="18.7" height="15" fill="#6afb6a" rx="2" ry="2"/>
<text x="1005.7" y="46.0"></text>
</g>
<g>
<title>thread_start (9 samples, 14.29%)</title><rect x="1021.4" y="291.0" width="168.6" height="15" fill="#fc7e7e" rx="2" ry="2"/>
<text x="1024.4" y="302.0">thread_start</text>
</g>
<g>
<title>_pthread_start (9 samples, 14.29%)</title><rect x="1021.4" y="275.0" width="168.6" height="15" fill="#e25c5c" rx="2" ry="2"/>
<text x="1024.4" y="286.0">_pthread_start</text>
</g>
<g>
<title>_pthread_body (9 samples, 14.29%)</title><rect x="1021.4" y="259.0" width="168.6" height="15" fill="#fc7e7e" rx="2" ry="2"/>
<text x="1024.4" y="270.0">_pthread_body</text>
</g>
<g>
<title>java_start(Thread*) (9 samples, 14.29%)</title><rect x="1021.4" y="243.0" width="168.6" height="15" fill="#f06e6e" rx="2" ry="2"/>
<text x="1024.4" y="254.0">java_start(Thread*)</text>
</g>
<g>
<title>VMThread::run() (2 samples, 3.17%)</title><rect x="1021.4" y="227.0" width="37.5" height="15" fill="#d7d741" rx="2" ry="2"/>
<text x="1024.4" y="238.0">VMT..</text>
</g>
<g>
<title>VMThread::loop() (2 samples, 3.17%)</title><rect x="1021.4" y="211.0" width="37.5" height="15" fill="#d1d13f" rx="2" ry="2"/>
<text x="1024.4" y="222.0">VMT..</text>
</g>
<g>
<title>Monitor::wait(bool, long, bool) (2 samples, 3.17%)</title><rect x="1021.4" y="195.0" width="37.5" height="15" fill="#e5e545" rx="2" ry="2"/>
<text x="1024.4" y="206.0">Mon..</text>
</g>
<g>
<title>Monitor::IWait(Thread*, long) (2 samples, 3.17%)</title><rect x="1021.4" y="179.0" width="37.5" height="15" fill="#d6d640" rx="2" ry="2"/>
<text x="1024.4" y="190.0">Mon..</text>
</g>
<g>
<title>os::PlatformEvent::park(long) (2 samples, 3.17%)</title><rect x="1021.4" y="163.0" width="37.5" height="15" fill="#cfcf3e" rx="2" ry="2"/>
<text x="1024.4" y="174.0">os:..</text>
</g>
<g>
<title>__psynch_cvwait (2 samples, 3.17%)</title><rect x="1021.4" y="147.0" width="37.5" height="15" fill="#e35d5d" rx="2" ry="2"/>
<text x="1024.4" y="158.0">__p..</text>
</g>
<g>
<title>WatcherThread::run() (7 samples, 11.11%)</title><rect x="1058.9" y="227.0" width="131.1" height="15" fill="#e4e445" rx="2" ry="2"/>
<text x="1061.9" y="238.0">WatcherThread::r..</text>
</g>
<g>
<title>PeriodicTask::real_time_tick(int) (1 samples, 1.59%)</title><rect x="1058.9" y="211.0" width="18.7" height="15" fill="#caca3c" rx="2" ry="2"/>
<text x="1061.9" y="222.0"></text>
</g>
<g>
<title>WatcherThread::sleep() const (6 samples, 9.52%)</title><rect x="1077.6" y="211.0" width="112.4" height="15" fill="#d7d741" rx="2" ry="2"/>
<text x="1080.6" y="222.0">WatcherThread:..</text>
</g>
<g>
<title>Monitor::wait(bool, long, bool) (6 samples, 9.52%)</title><rect x="1077.6" y="195.0" width="112.4" height="15" fill="#d3d33f" rx="2" ry="2"/>
<text x="1080.6" y="206.0">Monitor::wait(..</text>
</g>
<g>
<title>Monitor::IWait(Thread*, long) (6 samples, 9.52%)</title><rect x="1077.6" y="179.0" width="112.4" height="15" fill="#d0d03e" rx="2" ry="2"/>
<text x="1080.6" y="190.0">Monitor::IWait..</text>
</g>
<g>
<title>os::PlatformEvent::park(long) (6 samples, 9.52%)</title><rect x="1077.6" y="163.0" width="112.4" height="15" fill="#e3e345" rx="2" ry="2"/>
<text x="1080.6" y="174.0">os::PlatformEv..</text>
</g>
<g>
<title>__psynch_cvwait (6 samples, 9.52%)</title><rect x="1077.6" y="147.0" width="112.4" height="15" fill="#f06f6f" rx="2" ry="2"/>
<text x="1080.6" y="158.0">__psynch_cvwait</text>
</g>
</g>
</svg>
